<svg width="22" height="22" viewBox="0 0 22 22" fill="none" xmlns="http://www.w3.org/2000/svg">
<path fill-rule="evenodd" clip-rule="evenodd" d="M15.5133 16.5571C14.0841 17.7517 12.2437 18.4706 10.2353 18.4706C5.68707 18.4706 2 14.7835 2 10.2353C2 5.68707 5.68707 2 10.2353 2C14.7835 2 18.4706 5.68707 18.4706 10.2353C18.4706 12.0085 17.9102 13.6508 16.9568 14.9948C17.1324 15.0496 17.2977 15.1466 17.4368 15.2858L21.6554 19.5043C22.1149 19.9638 22.1149 20.7087 21.6554 21.1681C21.196 21.6276 20.4511 21.6276 19.9916 21.1681L15.7731 16.9495C15.6573 16.8338 15.5708 16.7 15.5133 16.5571ZM16.1176 10.2353C16.1176 13.484 13.484 16.1176 10.2353 16.1176C6.98656 16.1176 4.35294 13.484 4.35294 10.2353C4.35294 6.98656 6.98656 4.35294 10.2353 4.35294C13.484 4.35294 16.1176 6.98656 16.1176 10.2353Z" fill="#92929D"/>
</svg>
