<svg width="8" height="14" viewBox="0 0 8 14" fill="none" xmlns="http://www.w3.org/2000/svg">
<path fill-rule="evenodd" clip-rule="evenodd" d="M7.70711 1.70711C8.09763 1.31658 8.09763 0.683418 7.70711 0.292893C7.31658 -0.0976311 6.68342 -0.0976311 6.29289 0.292893L0.293282 6.2925C0.293152 6.29263 0.293023 6.29276 0.292893 6.29289C0.244078 6.34171 0.201364 6.39432 0.164752 6.44977C0.0528097 6.61931 -0.00208755 6.81543 6.06736e-05 7.01105C0.000722817 7.07134 0.00680453 7.13159 0.0183058 7.19099C0.0549175 7.38009 0.146447 7.56066 0.292893 7.70711L6.29289 13.7071C6.68342 14.0976 7.31658 14.0976 7.70711 13.7071C8.09763 13.3166 8.09763 12.6834 7.70711 12.2929L2.41421 7L7.70711 1.70711Z" fill="#171725"/>
</svg>
