<svg width="24" height="24" viewBox="0 0 24 24" fill="none" xmlns="http://www.w3.org/2000/svg">
<path fill-rule="evenodd" clip-rule="evenodd" d="M2 13C2 7.47715 6.47715 3 12 3C17.5228 3 22 7.47715 22 13V21H18C16.3431 21 15 19.6569 15 18V16C15 14.3431 16.3431 13 18 13H20C20 8.58172 16.4183 5 12 5C7.58172 5 4 8.58172 4 13H6C7.65685 13 9 14.3431 9 16V18C9 19.6569 7.65685 21 6 21H2V13ZM4 19H6C6.55228 19 7 18.5523 7 18V16C7 15.4477 6.55228 15 6 15H4V19ZM20 15V19H18C17.4477 19 17 18.5523 17 18V16C17 15.4477 17.4477 15 18 15H20Z" fill="white"/>
</svg>
