<svg width="24" height="24" viewBox="0 0 24 24" fill="none" xmlns="http://www.w3.org/2000/svg">
<path fill-rule="evenodd" clip-rule="evenodd" d="M12 22C17.5228 22 22 17.5228 22 12C22 6.47715 17.5228 2 12 2C6.47715 2 2 6.47715 2 12C2 17.5228 6.47715 22 12 22ZM12 20C13.8486 20 15.5508 19.373 16.9054 18.32C14.1832 15.6449 9.8168 15.6449 7.09457 18.32C8.44922 19.373 10.1514 20 12 20ZM20 12C20 13.8488 19.3729 15.5511 18.3197 16.9058C17.0586 15.6617 15.5215 14.8654 13.9071 14.517C15.1537 13.8395 16 12.5186 16 11C16 8.79086 14.2091 7 12 7C9.79086 7 8 8.79086 8 11C8 12.5186 8.84626 13.8395 10.0929 14.517C8.47853 14.8654 6.94143 15.6617 5.68027 16.9058C4.62713 15.5511 4 13.8488 4 12C4 7.58172 7.58172 4 12 4C16.4183 4 20 7.58172 20 12ZM14 11C14 12.1046 13.1046 13 12 13C10.8954 13 10 12.1046 10 11C10 9.89543 10.8954 9 12 9C13.1046 9 14 9.89543 14 11Z" fill="white"/>
</svg>
