<svg width="16" height="20" viewBox="0 0 16 20" fill="none" xmlns="http://www.w3.org/2000/svg">
<path d="M2.66667 0C1.19391 0 0 1.22104 0 2.72727V6.81818C0 7.32026 0.397969 7.72727 0.888889 7.72727C1.37981 7.72727 1.77778 7.32026 1.77778 6.81818V2.72727C1.77778 2.2252 2.17575 1.81818 2.66667 1.81818H13.3333C13.8243 1.81818 14.2222 2.2252 14.2222 2.72727V17.2727C14.2222 17.7748 13.8243 18.1818 13.3333 18.1818H2.66667C2.17575 18.1818 1.77778 17.7748 1.77778 17.2727V13.6364C1.77778 13.1343 1.37981 12.7273 0.888889 12.7273C0.397969 12.7273 0 13.1343 0 13.6364V17.2727C0 18.779 1.19391 20 2.66667 20H13.3333C14.8061 20 16 18.779 16 17.2727V2.72727C16 1.22104 14.8061 0 13.3333 0H2.66667Z" fill="white"/>
<path d="M6.85076 4.81172C6.50363 4.4567 5.94082 4.4567 5.59368 4.81172C5.24655 5.16674 5.24655 5.74235 5.59368 6.09737L8.5207 9.09091H0.888889C0.397969 9.09091 0 9.49792 0 10C0 10.5021 0.397969 10.9091 0.888889 10.9091H8.5207L5.59368 13.9026C5.24655 14.2577 5.24655 14.8333 5.59368 15.1883C5.94082 15.5433 6.50363 15.5433 6.85076 15.1883L11.8791 10.0457L11.8344 10L11.8791 9.95432L6.85076 4.81172Z" fill="white"/>
</svg>
