<svg width="20" height="20" viewBox="0 0 20 20" fill="none" xmlns="http://www.w3.org/2000/svg">
<path fill-rule="evenodd" clip-rule="evenodd" d="M0.00108945 9.97384C-0.0125456 10.2761 0.103049 10.5721 0.319048 10.7881L8.89283 19.3619C9.73327 20.2024 11.0842 20.2141 11.9102 19.3881L19.3881 11.9102C20.2141 11.0842 20.2024 9.73327 19.3619 8.89283L10.7881 0.319045C10.5721 0.103047 10.2761 -0.012548 9.97384 0.00108741L0.999241 0.000758032C0.455379 0.0252915 0.0245355 0.456135 2.0622e-06 0.999997L0.00108945 9.97384ZM9.63194 2.15401H2.15401L2.15401 9.63194L10.3884 17.8663L17.8663 10.3884L9.63194 2.15401ZM8.01416 5.02299C8.85461 5.86344 8.86633 7.21435 8.04034 8.04034C7.21435 8.86633 5.86344 8.85461 5.02299 8.01416C4.18255 7.17372 4.17083 5.82281 4.99682 4.99682C5.82281 4.17083 7.17372 4.18255 8.01416 5.02299Z" fill="#2ECC71"/>
</svg>
