<svg width="24" height="24" viewBox="0 0 24 24" fill="none" xmlns="http://www.w3.org/2000/svg">
<path fill-rule="evenodd" clip-rule="evenodd" d="M10 7L20 7V8.53513C18.8044 9.22675 18 10.5194 18 12C18 13.4806 18.8044 14.7733 20 15.4649V17H10V16C10 15.4477 9.55228 15 9 15C8.44772 15 8 15.4477 8 16V17H4L4 15.4649C5.1956 14.7733 6 13.4806 6 12C6 10.5194 5.1956 9.22675 4 8.53513V7H8V8C8 8.55228 8.44772 9 9 9C9.55228 9 10 8.55228 10 8V7ZM9 19H4C2.89543 19 2 18.1046 2 17V16V14C3.10457 14 4 13.1046 4 12C4 10.8954 3.10457 10 2 10V8V7C2 5.89543 2.89543 5 4 5H9H20C21.1046 5 22 5.89543 22 7V8V10C20.8954 10 20 10.8954 20 12C20 13.1046 20.8954 14 22 14V16V17C22 18.1046 21.1046 19 20 19H9ZM9 10C9.55228 10 10 10.4477 10 11V13C10 13.5523 9.55228 14 9 14C8.44772 14 8 13.5523 8 13V11C8 10.4477 8.44772 10 9 10Z" fill="white"/>
</svg>
