<svg width="55" height="15" viewBox="0 0 55 15" fill="none" xmlns="http://www.w3.org/2000/svg">
<path d="M1.01738 12C0.708043 12 0.462709 11.9147 0.281376 11.744C0.110709 11.5733 0.0253758 11.3333 0.0253758 11.024V1.696C0.0253758 1.38667 0.110709 1.14667 0.281376 0.976C0.462709 0.805333 0.708043 0.719999 1.01738 0.719999H6.79338C7.10271 0.719999 7.34271 0.789333 7.51338 0.927999C7.68404 1.06667 7.76938 1.264 7.76938 1.52C7.76938 1.78667 7.68404 1.99467 7.51338 2.144C7.34271 2.28267 7.10271 2.352 6.79338 2.352H2.04138V5.456H6.47338C6.78271 5.456 7.02271 5.52533 7.19338 5.664C7.36404 5.80267 7.44938 6.00533 7.44938 6.272C7.44938 6.528 7.36404 6.72533 7.19338 6.864C7.02271 7.00267 6.78271 7.072 6.47338 7.072H2.04138V10.368H6.79338C7.10271 10.368 7.34271 10.4427 7.51338 10.592C7.68404 10.7307 7.76938 10.9333 7.76938 11.2C7.76938 11.456 7.68404 11.6533 7.51338 11.792C7.34271 11.9307 7.10271 12 6.79338 12H1.01738ZM16.1553 10.528C16.3473 10.72 16.4433 10.9387 16.4433 11.184C16.4433 11.4187 16.3526 11.632 16.1713 11.824C15.9899 12.0053 15.7766 12.096 15.5313 12.096C15.2646 12.096 15.0353 11.984 14.8433 11.76L12.5873 9.264L10.3313 11.76C10.1286 11.9733 9.89925 12.08 9.64325 12.08C9.40858 12.08 9.20058 11.9893 9.01925 11.808C8.83792 11.6267 8.74725 11.4187 8.74725 11.184C8.74725 10.9387 8.84325 10.72 9.03525 10.528L11.3713 7.984L9.16325 5.584C8.97125 5.392 8.87525 5.17333 8.87525 4.928C8.87525 4.68267 8.96592 4.47467 9.14725 4.304C9.32858 4.12267 9.53658 4.032 9.77125 4.032C10.0273 4.032 10.2566 4.13867 10.4593 4.352L12.5873 6.688L14.7153 4.352C14.9179 4.13867 15.1473 4.032 15.4033 4.032C15.6486 4.032 15.8566 4.12267 16.0273 4.304C16.2086 4.47467 16.2993 4.68267 16.2993 4.928C16.2993 5.17333 16.2033 5.392 16.0113 5.584L13.8033 7.984L16.1553 10.528ZM22.4829 3.984C23.1549 3.984 23.7522 4.15467 24.2749 4.496C24.8082 4.83733 25.2189 5.32267 25.5069 5.952C25.8055 6.57067 25.9549 7.28533 25.9549 8.096C25.9549 8.90667 25.8055 9.616 25.5069 10.224C25.2189 10.832 24.8135 11.3013 24.2909 11.632C23.7682 11.9627 23.1655 12.128 22.4829 12.128C21.9282 12.128 21.4322 12.0107 20.9949 11.776C20.5575 11.5413 20.2215 11.216 19.9869 10.8V14.064C19.9869 14.3413 19.8962 14.56 19.7149 14.72C19.5335 14.88 19.2935 14.96 18.9949 14.96C18.6962 14.96 18.4509 14.8747 18.2589 14.704C18.0775 14.5333 17.9869 14.3093 17.9869 14.032V4.96C17.9869 4.672 18.0722 4.44267 18.2429 4.272C18.4242 4.10133 18.6642 4.016 18.9629 4.016C19.2615 4.016 19.5015 4.10133 19.6829 4.272C19.8642 4.44267 19.9549 4.672 19.9549 4.96V5.36C20.1895 4.92267 20.5255 4.58667 20.9629 4.352C21.4109 4.10667 21.9175 3.984 22.4829 3.984ZM21.9549 10.576C22.5842 10.576 23.0749 10.3627 23.4269 9.936C23.7789 9.49867 23.9549 8.88533 23.9549 8.096C23.9549 7.28533 23.7789 6.656 23.4269 6.208C23.0749 5.76 22.5842 5.536 21.9549 5.536C21.3149 5.536 20.8189 5.75467 20.4669 6.192C20.1255 6.62933 19.9549 7.25333 19.9549 8.064C19.9549 8.864 20.1255 9.48267 20.4669 9.92C20.8189 10.3573 21.3149 10.576 21.9549 10.576ZM28.6883 12.096C28.4003 12.096 28.1603 12.016 27.9683 11.856C27.7869 11.6853 27.6963 11.4453 27.6963 11.136V1.584C27.6963 1.27467 27.7869 1.04 27.9683 0.879999C28.1603 0.719999 28.4003 0.639999 28.6883 0.639999C28.9763 0.639999 29.2163 0.719999 29.4083 0.879999C29.6003 1.04 29.6963 1.27467 29.6963 1.584V11.136C29.6963 11.4453 29.6003 11.6853 29.4083 11.856C29.2163 12.016 28.9763 12.096 28.6883 12.096ZM35.4268 12.128C34.6268 12.128 33.9228 11.9627 33.3148 11.632C32.7174 11.3013 32.2534 10.8267 31.9228 10.208C31.5921 9.58933 31.4268 8.86933 31.4268 8.048C31.4268 7.22667 31.5921 6.512 31.9228 5.904C32.2534 5.28533 32.7174 4.81067 33.3148 4.48C33.9228 4.14933 34.6268 3.984 35.4268 3.984C36.2268 3.984 36.9254 4.14933 37.5228 4.48C38.1308 4.81067 38.5948 5.28533 38.9148 5.904C39.2454 6.512 39.4108 7.22667 39.4108 8.048C39.4108 8.86933 39.2454 9.58933 38.9148 10.208C38.5948 10.8267 38.1308 11.3013 37.5228 11.632C36.9254 11.9627 36.2268 12.128 35.4268 12.128ZM35.4108 10.576C36.0614 10.576 36.5574 10.3627 36.8988 9.936C37.2401 9.50933 37.4108 8.88 37.4108 8.048C37.4108 7.22667 37.2401 6.60267 36.8988 6.176C36.5574 5.73867 36.0668 5.52 35.4268 5.52C34.7868 5.52 34.2908 5.73867 33.9388 6.176C33.5974 6.60267 33.4268 7.22667 33.4268 8.048C33.4268 8.88 33.5974 9.50933 33.9388 9.936C34.2801 10.3627 34.7708 10.576 35.4108 10.576ZM45.5299 4.016C45.8072 3.99467 46.0259 4.05333 46.1859 4.192C46.3459 4.33067 46.4259 4.53867 46.4259 4.816C46.4259 5.104 46.3565 5.31733 46.2179 5.456C46.0792 5.59467 45.8285 5.68533 45.4659 5.728L44.9859 5.776C44.3565 5.84 43.8925 6.05333 43.5939 6.416C43.3059 6.77867 43.1619 7.232 43.1619 7.776V11.136C43.1619 11.4453 43.0659 11.6853 42.8739 11.856C42.6819 12.016 42.4419 12.096 42.1539 12.096C41.8659 12.096 41.6259 12.016 41.4339 11.856C41.2525 11.6853 41.1619 11.4453 41.1619 11.136V4.944C41.1619 4.64533 41.2525 4.416 41.4339 4.256C41.6259 4.096 41.8605 4.016 42.1379 4.016C42.4152 4.016 42.6392 4.096 42.8099 4.256C42.9805 4.40533 43.0659 4.624 43.0659 4.912V5.552C43.2685 5.08267 43.5672 4.72 43.9619 4.464C44.3672 4.208 44.8152 4.064 45.3059 4.032L45.5299 4.016ZM53.4226 9.856C53.604 9.856 53.748 9.92533 53.8546 10.064C53.972 10.2027 54.0306 10.3893 54.0306 10.624C54.0306 10.9547 53.8333 11.232 53.4386 11.456C53.076 11.6587 52.6653 11.824 52.2066 11.952C51.748 12.0693 51.3106 12.128 50.8946 12.128C49.636 12.128 48.6386 11.7653 47.9026 11.04C47.1666 10.3147 46.7986 9.32267 46.7986 8.064C46.7986 7.264 46.9586 6.55467 47.2786 5.936C47.5986 5.31733 48.0466 4.83733 48.6226 4.496C49.2093 4.15467 49.8706 3.984 50.6066 3.984C51.3106 3.984 51.924 4.13867 52.4466 4.448C52.9693 4.75733 53.3746 5.19467 53.6626 5.76C53.9506 6.32533 54.0946 6.992 54.0946 7.76C54.0946 8.21867 53.892 8.448 53.4866 8.448H48.7666C48.8306 9.184 49.0386 9.728 49.3906 10.08C49.7426 10.4213 50.2546 10.592 50.9266 10.592C51.268 10.592 51.5666 10.5493 51.8226 10.464C52.0893 10.3787 52.388 10.2613 52.7186 10.112C53.0386 9.94133 53.2733 9.856 53.4226 9.856ZM50.6546 5.392C50.1106 5.392 49.6733 5.56267 49.3426 5.904C49.0226 6.24533 48.8306 6.736 48.7666 7.376H52.3826C52.3613 6.72533 52.2013 6.23467 51.9026 5.904C51.604 5.56267 51.188 5.392 50.6546 5.392Z" fill="#2ECC71"/>
</svg>
