<svg width="43" height="13" viewBox="0 0 43 13" fill="none" xmlns="http://www.w3.org/2000/svg">
<path d="M9.17106 0.639999C9.4804 0.639999 9.72573 0.735999 9.90706 0.927999C10.0884 1.10933 10.1791 1.35467 10.1791 1.664V11.056C10.1791 11.3653 10.0831 11.616 9.89106 11.808C9.70973 12 9.46973 12.096 9.17106 12.096C8.86173 12.096 8.6164 12 8.43506 11.808C8.25373 11.616 8.16306 11.3653 8.16306 11.056V7.104H2.38706V11.056C2.38706 11.3653 2.29106 11.616 2.09906 11.808C1.91773 12 1.6724 12.096 1.36306 12.096C1.0644 12.096 0.819063 12 0.627063 11.808C0.44573 11.616 0.355063 11.3653 0.355063 11.056V1.664C0.355063 1.35467 0.44573 1.10933 0.627063 0.927999C0.808396 0.735999 1.05373 0.639999 1.36306 0.639999C1.6724 0.639999 1.91773 0.735999 2.09906 0.927999C2.29106 1.10933 2.38706 1.35467 2.38706 1.664V5.44H8.16306V1.664C8.16306 1.35467 8.25373 1.10933 8.43506 0.927999C8.6164 0.735999 8.86173 0.639999 9.17106 0.639999ZM16.0971 12.128C15.2971 12.128 14.5931 11.9627 13.9851 11.632C13.3877 11.3013 12.9237 10.8267 12.5931 10.208C12.2624 9.58933 12.0971 8.86933 12.0971 8.048C12.0971 7.22667 12.2624 6.512 12.5931 5.904C12.9237 5.28533 13.3877 4.81067 13.9851 4.48C14.5931 4.14933 15.2971 3.984 16.0971 3.984C16.8971 3.984 17.5957 4.14933 18.1931 4.48C18.8011 4.81067 19.2651 5.28533 19.5851 5.904C19.9157 6.512 20.0811 7.22667 20.0811 8.048C20.0811 8.86933 19.9157 9.58933 19.5851 10.208C19.2651 10.8267 18.8011 11.3013 18.1931 11.632C17.5957 11.9627 16.8971 12.128 16.0971 12.128ZM16.0811 10.576C16.7317 10.576 17.2277 10.3627 17.5691 9.936C17.9104 9.50933 18.0811 8.88 18.0811 8.048C18.0811 7.22667 17.9104 6.60267 17.5691 6.176C17.2277 5.73867 16.7371 5.52 16.0971 5.52C15.4571 5.52 14.9611 5.73867 14.6091 6.176C14.2677 6.60267 14.0971 7.22667 14.0971 8.048C14.0971 8.88 14.2677 9.50933 14.6091 9.936C14.9504 10.3627 15.4411 10.576 16.0811 10.576ZM31.1282 3.984C31.9815 3.984 32.6322 4.24 33.0802 4.752C33.5389 5.25333 33.7682 6.06933 33.7682 7.2V11.136C33.7682 11.4453 33.6722 11.6853 33.4802 11.856C33.2989 12.016 33.0589 12.096 32.7602 12.096C32.4722 12.096 32.2322 12.016 32.0402 11.856C31.8589 11.6853 31.7682 11.4453 31.7682 11.136V7.2C31.7682 6.61333 31.6615 6.19733 31.4482 5.952C31.2455 5.696 30.9309 5.568 30.5042 5.568C29.9815 5.568 29.5655 5.74933 29.2562 6.112C28.9469 6.464 28.7922 6.94933 28.7922 7.568V11.136C28.7922 11.4453 28.6962 11.6853 28.5042 11.856C28.3229 12.016 28.0882 12.096 27.8002 12.096C27.5122 12.096 27.2722 12.016 27.0802 11.856C26.8882 11.6853 26.7922 11.4453 26.7922 11.136V7.2C26.7922 6.61333 26.6855 6.19733 26.4722 5.952C26.2695 5.696 25.9549 5.568 25.5282 5.568C25.0055 5.568 24.5895 5.74933 24.2802 6.112C23.9815 6.464 23.8322 6.94933 23.8322 7.568V11.136C23.8322 11.4453 23.7362 11.6853 23.5442 11.856C23.3522 12.016 23.1122 12.096 22.8242 12.096C22.5362 12.096 22.2962 12.016 22.1042 11.856C21.9229 11.6853 21.8322 11.4453 21.8322 11.136V4.944C21.8322 4.64533 21.9282 4.416 22.1202 4.256C22.3122 4.096 22.5522 4.016 22.8402 4.016C23.1175 4.016 23.3415 4.096 23.5122 4.256C23.6935 4.40533 23.7842 4.624 23.7842 4.912V5.296C24.0295 4.86933 24.3549 4.544 24.7602 4.32C25.1762 4.096 25.6509 3.984 26.1842 3.984C27.3575 3.984 28.1415 4.47467 28.5362 5.456C28.7709 5.008 29.1175 4.65067 29.5762 4.384C30.0349 4.11733 30.5522 3.984 31.1282 3.984ZM42.0929 9.856C42.2743 9.856 42.4183 9.92533 42.5249 10.064C42.6423 10.2027 42.7009 10.3893 42.7009 10.624C42.7009 10.9547 42.5036 11.232 42.1089 11.456C41.7463 11.6587 41.3356 11.824 40.8769 11.952C40.4183 12.0693 39.9809 12.128 39.5649 12.128C38.3063 12.128 37.3089 11.7653 36.5729 11.04C35.8369 10.3147 35.4689 9.32267 35.4689 8.064C35.4689 7.264 35.6289 6.55467 35.9489 5.936C36.2689 5.31733 36.7169 4.83733 37.2929 4.496C37.8796 4.15467 38.5409 3.984 39.2769 3.984C39.9809 3.984 40.5943 4.13867 41.1169 4.448C41.6396 4.75733 42.0449 5.19467 42.3329 5.76C42.6209 6.32533 42.7649 6.992 42.7649 7.76C42.7649 8.21867 42.5623 8.448 42.1569 8.448H37.4369C37.5009 9.184 37.7089 9.728 38.0609 10.08C38.4129 10.4213 38.9249 10.592 39.5969 10.592C39.9383 10.592 40.2369 10.5493 40.4929 10.464C40.7596 10.3787 41.0583 10.2613 41.3889 10.112C41.7089 9.94133 41.9436 9.856 42.0929 9.856ZM39.3249 5.392C38.7809 5.392 38.3436 5.56267 38.0129 5.904C37.6929 6.24533 37.5009 6.736 37.4369 7.376H41.0529C41.0316 6.72533 40.8716 6.23467 40.5729 5.904C40.2743 5.56267 39.8583 5.392 39.3249 5.392Z" fill="#696974"/>
</svg>
