<svg width="49" height="13" viewBox="0 0 49 13" fill="none" xmlns="http://www.w3.org/2000/svg">
<path d="M1.13531 12.096C0.82598 12.096 0.575313 12.0053 0.383313 11.824C0.20198 11.632 0.111313 11.376 0.111313 11.056V1.696C0.111313 1.38667 0.196647 1.14667 0.367313 0.976C0.548647 0.805333 0.79398 0.719999 1.10331 0.719999H5.03931C6.24465 0.719999 7.18331 1.024 7.85531 1.632C8.52731 2.22933 8.86331 3.072 8.86331 4.16C8.86331 5.248 8.52731 6.096 7.85531 6.704C7.18331 7.312 6.24465 7.616 5.03931 7.616H2.17531V11.056C2.17531 11.376 2.07931 11.632 1.88731 11.824C1.70598 12.0053 1.45531 12.096 1.13531 12.096ZM4.78331 6.032C6.20198 6.032 6.91131 5.41333 6.91131 4.176C6.91131 2.93867 6.20198 2.32 4.78331 2.32H2.17531V6.032H4.78331ZM14.8096 4.016C15.0869 3.99467 15.3056 4.05333 15.4656 4.192C15.6256 4.33067 15.7056 4.53867 15.7056 4.816C15.7056 5.104 15.6362 5.31733 15.4976 5.456C15.3589 5.59467 15.1082 5.68533 14.7456 5.728L14.2656 5.776C13.6362 5.84 13.1722 6.05333 12.8736 6.416C12.5856 6.77867 12.4416 7.232 12.4416 7.776V11.136C12.4416 11.4453 12.3456 11.6853 12.1536 11.856C11.9616 12.016 11.7216 12.096 11.4336 12.096C11.1456 12.096 10.9056 12.016 10.7136 11.856C10.5322 11.6853 10.4416 11.4453 10.4416 11.136V4.944C10.4416 4.64533 10.5322 4.416 10.7136 4.256C10.9056 4.096 11.1402 4.016 11.4176 4.016C11.6949 4.016 11.9189 4.096 12.0896 4.256C12.2602 4.40533 12.3456 4.624 12.3456 4.912V5.552C12.5482 5.08267 12.8469 4.72 13.2416 4.464C13.6469 4.208 14.0949 4.064 14.5856 4.032L14.8096 4.016ZM20.0783 12.128C19.2783 12.128 18.5743 11.9627 17.9663 11.632C17.369 11.3013 16.905 10.8267 16.5743 10.208C16.2436 9.58933 16.0783 8.86933 16.0783 8.048C16.0783 7.22667 16.2436 6.512 16.5743 5.904C16.905 5.28533 17.369 4.81067 17.9663 4.48C18.5743 4.14933 19.2783 3.984 20.0783 3.984C20.8783 3.984 21.577 4.14933 22.1743 4.48C22.7823 4.81067 23.2463 5.28533 23.5663 5.904C23.897 6.512 24.0623 7.22667 24.0623 8.048C24.0623 8.86933 23.897 9.58933 23.5663 10.208C23.2463 10.8267 22.7823 11.3013 22.1743 11.632C21.577 11.9627 20.8783 12.128 20.0783 12.128ZM20.0623 10.576C20.713 10.576 21.209 10.3627 21.5503 9.936C21.8916 9.50933 22.0623 8.88 22.0623 8.048C22.0623 7.22667 21.8916 6.60267 21.5503 6.176C21.209 5.73867 20.7183 5.52 20.0783 5.52C19.4383 5.52 18.9423 5.73867 18.5903 6.176C18.249 6.60267 18.0783 7.22667 18.0783 8.048C18.0783 8.88 18.249 9.50933 18.5903 9.936C18.9316 10.3627 19.4223 10.576 20.0623 10.576ZM29.7186 2.208C29.2279 2.24 28.8706 2.38933 28.6466 2.656C28.4226 2.92267 28.3106 3.30667 28.3106 3.808V4.176H29.6706C30.2679 4.176 30.5666 4.42667 30.5666 4.928C30.5666 5.42933 30.2679 5.68 29.6706 5.68H28.3106V11.136C28.3106 11.4453 28.2146 11.68 28.0226 11.84C27.8412 12 27.6066 12.08 27.3186 12.08C27.0306 12.08 26.7906 12 26.5986 11.84C26.4066 11.68 26.3106 11.4453 26.3106 11.136V5.68H25.5106C24.9132 5.68 24.6146 5.42933 24.6146 4.928C24.6146 4.42667 24.9132 4.176 25.5106 4.176H26.3106V4.064C26.3106 3.06133 26.5719 2.27733 27.0946 1.712C27.6279 1.136 28.3746 0.810666 29.3346 0.735999L29.7506 0.704C30.1772 0.671999 30.4759 0.719999 30.6466 0.848C30.8279 0.965333 30.9186 1.152 30.9186 1.408C30.9186 1.86667 30.6572 2.12267 30.1346 2.176L29.7186 2.208ZM33.8117 12.096C33.5237 12.096 33.2837 12.016 33.0917 11.856C32.9104 11.6853 32.8197 11.4453 32.8197 11.136V4.96C32.8197 4.65067 32.9104 4.416 33.0917 4.256C33.2837 4.096 33.5237 4.016 33.8117 4.016C34.0997 4.016 34.3397 4.096 34.5317 4.256C34.7237 4.416 34.8197 4.65067 34.8197 4.96V11.136C34.8197 11.4453 34.7237 11.6853 34.5317 11.856C34.3397 12.016 34.0997 12.096 33.8117 12.096ZM33.8117 2.592C33.449 2.592 33.161 2.496 32.9477 2.304C32.7344 2.10133 32.6277 1.84 32.6277 1.52C32.6277 1.2 32.7344 0.943999 32.9477 0.752C33.161 0.56 33.449 0.464 33.8117 0.464C34.1637 0.464 34.4464 0.56 34.6597 0.752C34.8837 0.943999 34.9957 1.2 34.9957 1.52C34.9957 1.84 34.889 2.10133 34.6757 2.304C34.4624 2.496 34.1744 2.592 33.8117 2.592ZM37.9742 12.096C37.6862 12.096 37.4462 12.016 37.2542 11.856C37.0729 11.6853 36.9822 11.4453 36.9822 11.136V1.584C36.9822 1.27467 37.0729 1.04 37.2542 0.879999C37.4462 0.719999 37.6862 0.639999 37.9742 0.639999C38.2622 0.639999 38.5022 0.719999 38.6942 0.879999C38.8862 1.04 38.9822 1.27467 38.9822 1.584V11.136C38.9822 11.4453 38.8862 11.6853 38.6942 11.856C38.5022 12.016 38.2622 12.096 37.9742 12.096ZM47.3367 9.856C47.518 9.856 47.662 9.92533 47.7687 10.064C47.886 10.2027 47.9447 10.3893 47.9447 10.624C47.9447 10.9547 47.7474 11.232 47.3527 11.456C46.99 11.6587 46.5794 11.824 46.1207 11.952C45.662 12.0693 45.2247 12.128 44.8087 12.128C43.55 12.128 42.5527 11.7653 41.8167 11.04C41.0807 10.3147 40.7127 9.32267 40.7127 8.064C40.7127 7.264 40.8727 6.55467 41.1927 5.936C41.5127 5.31733 41.9607 4.83733 42.5367 4.496C43.1234 4.15467 43.7847 3.984 44.5207 3.984C45.2247 3.984 45.838 4.13867 46.3607 4.448C46.8834 4.75733 47.2887 5.19467 47.5767 5.76C47.8647 6.32533 48.0087 6.992 48.0087 7.76C48.0087 8.21867 47.806 8.448 47.4007 8.448H42.6807C42.7447 9.184 42.9527 9.728 43.3047 10.08C43.6567 10.4213 44.1687 10.592 44.8407 10.592C45.182 10.592 45.4807 10.5493 45.7367 10.464C46.0034 10.3787 46.302 10.2613 46.6327 10.112C46.9527 9.94133 47.1874 9.856 47.3367 9.856ZM44.5687 5.392C44.0247 5.392 43.5874 5.56267 43.2567 5.904C42.9367 6.24533 42.7447 6.736 42.6807 7.376H46.2967C46.2754 6.72533 46.1154 6.23467 45.8167 5.904C45.518 5.56267 45.102 5.392 44.5687 5.392Z" fill="#696974"/>
</svg>
