<svg width="33" height="13" viewBox="0 0 33 13" fill="none" xmlns="http://www.w3.org/2000/svg">
<path d="M6.31694 12.144C5.22894 12.144 4.27427 11.9093 3.45294 11.44C2.64227 10.9707 2.01827 10.2987 1.58094 9.424C1.1436 8.54933 0.924938 7.52533 0.924938 6.352C0.924938 5.17867 1.1436 4.16 1.58094 3.296C2.01827 2.42133 2.64227 1.74933 3.45294 1.28C4.27427 0.810666 5.22894 0.575999 6.31694 0.575999C7.02094 0.575999 7.68227 0.682666 8.30094 0.896C8.9196 1.09867 9.46894 1.39733 9.94894 1.792C10.0876 1.89867 10.1836 2.01067 10.2369 2.128C10.2903 2.24533 10.3169 2.38933 10.3169 2.56C10.3169 2.79467 10.2529 2.992 10.1249 3.152C9.99694 3.312 9.84227 3.392 9.66094 3.392C9.44761 3.392 9.22894 3.31733 9.00494 3.168C8.54627 2.82667 8.11961 2.592 7.72494 2.464C7.33027 2.32533 6.89294 2.256 6.41294 2.256C5.3036 2.256 4.46094 2.60267 3.88494 3.296C3.3196 3.98933 3.03694 5.008 3.03694 6.352C3.03694 7.70667 3.3196 8.73067 3.88494 9.424C4.46094 10.1173 5.3036 10.464 6.41294 10.464C6.8716 10.464 7.29294 10.3947 7.67694 10.256C8.0716 10.1173 8.51427 9.88267 9.00494 9.552C9.1116 9.488 9.21827 9.43467 9.32494 9.392C9.43161 9.34933 9.54361 9.328 9.66094 9.328C9.84227 9.328 9.99694 9.408 10.1249 9.568C10.2529 9.728 10.3169 9.92533 10.3169 10.16C10.3169 10.32 10.2903 10.464 10.2369 10.592C10.1836 10.7093 10.0876 10.8213 9.94894 10.928C9.46894 11.3227 8.9196 11.6267 8.30094 11.84C7.68227 12.0427 7.02094 12.144 6.31694 12.144ZM15.2804 3.984C16.3684 3.984 17.1738 4.256 17.6964 4.8C18.2298 5.33333 18.4964 6.14933 18.4964 7.248V11.152C18.4964 11.44 18.4111 11.6693 18.2404 11.84C18.0698 12 17.8351 12.08 17.5364 12.08C17.2591 12.08 17.0298 11.9947 16.8484 11.824C16.6778 11.6533 16.5924 11.4293 16.5924 11.152V10.8C16.4111 11.216 16.1231 11.5413 15.7284 11.776C15.3444 12.0107 14.8964 12.128 14.3844 12.128C13.8618 12.128 13.3871 12.0213 12.9604 11.808C12.5338 11.5947 12.1978 11.3013 11.9524 10.928C11.7071 10.5547 11.5844 10.1387 11.5844 9.68C11.5844 9.104 11.7284 8.65067 12.0164 8.32C12.3151 7.98933 12.7951 7.74933 13.4564 7.6C14.1178 7.45067 15.0298 7.376 16.1924 7.376H16.5924V7.008C16.5924 6.48533 16.4804 6.10667 16.2564 5.872C16.0324 5.62667 15.6698 5.504 15.1684 5.504C14.8591 5.504 14.5444 5.552 14.2244 5.648C13.9044 5.73333 13.5258 5.86133 13.0884 6.032C12.8111 6.17067 12.6084 6.24 12.4804 6.24C12.2884 6.24 12.1284 6.17067 12.0004 6.032C11.8831 5.89333 11.8244 5.712 11.8244 5.488C11.8244 5.30667 11.8671 5.152 11.9524 5.024C12.0484 4.88533 12.2031 4.75733 12.4164 4.64C12.7898 4.43733 13.2324 4.27733 13.7444 4.16C14.2671 4.04267 14.7791 3.984 15.2804 3.984ZM14.7844 10.688C15.3178 10.688 15.7498 10.512 16.0804 10.16C16.4218 9.79733 16.5924 9.33333 16.5924 8.768V8.432H16.3044C15.5898 8.432 15.0351 8.464 14.6404 8.528C14.2458 8.592 13.9631 8.704 13.7924 8.864C13.6218 9.024 13.5364 9.24267 13.5364 9.52C13.5364 9.86133 13.6538 10.144 13.8884 10.368C14.1338 10.5813 14.4324 10.688 14.7844 10.688ZM24.9971 4.016C25.2744 3.99467 25.4931 4.05333 25.6531 4.192C25.8131 4.33067 25.8931 4.53867 25.8931 4.816C25.8931 5.104 25.8237 5.31733 25.6851 5.456C25.5464 5.59467 25.2957 5.68533 24.9331 5.728L24.4531 5.776C23.8237 5.84 23.3597 6.05333 23.0611 6.416C22.7731 6.77867 22.6291 7.232 22.6291 7.776V11.136C22.6291 11.4453 22.5331 11.6853 22.3411 11.856C22.1491 12.016 21.9091 12.096 21.6211 12.096C21.3331 12.096 21.0931 12.016 20.9011 11.856C20.7197 11.6853 20.6291 11.4453 20.6291 11.136V4.944C20.6291 4.64533 20.7197 4.416 20.9011 4.256C21.0931 4.096 21.3277 4.016 21.6051 4.016C21.8824 4.016 22.1064 4.096 22.2771 4.256C22.4477 4.40533 22.5331 4.624 22.5331 4.912V5.552C22.7357 5.08267 23.0344 4.72 23.4291 4.464C23.8344 4.208 24.2824 4.064 24.7731 4.032L24.9971 4.016ZM31.6368 10.608C32.1701 10.64 32.4368 10.88 32.4368 11.328C32.4368 11.584 32.3301 11.7813 32.1168 11.92C31.9141 12.048 31.6208 12.1013 31.2368 12.08L30.8048 12.048C29.0128 11.92 28.1168 10.96 28.1168 9.168V5.68H27.3168C27.0288 5.68 26.8048 5.616 26.6448 5.488C26.4955 5.36 26.4208 5.17333 26.4208 4.928C26.4208 4.68267 26.4955 4.496 26.6448 4.368C26.8048 4.24 27.0288 4.176 27.3168 4.176H28.1168V2.704C28.1168 2.416 28.2075 2.18667 28.3888 2.016C28.5701 1.84533 28.8155 1.76 29.1248 1.76C29.4235 1.76 29.6635 1.84533 29.8448 2.016C30.0261 2.18667 30.1168 2.416 30.1168 2.704V4.176H31.4768C31.7648 4.176 31.9835 4.24 32.1328 4.368C32.2928 4.496 32.3728 4.68267 32.3728 4.928C32.3728 5.17333 32.2928 5.36 32.1328 5.488C31.9835 5.616 31.7648 5.68 31.4768 5.68H30.1168V9.312C30.1168 10.1013 30.4795 10.5227 31.2048 10.576L31.6368 10.608Z" fill="#696974"/>
</svg>
