<svg width="20" height="20" viewBox="0 0 20 20" fill="none" xmlns="http://www.w3.org/2000/svg">
<path d="M4 6C4 5.44772 4.44772 5 5 5L15 5C15.5523 5 16 5.44772 16 6C16 6.55229 15.5523 7 15 7L5 7C4.44772 7 4 6.55228 4 6Z" fill="#171725"/>
<path d="M5 9C4.44772 9 4 9.44772 4 10C4 10.5523 4.44772 11 5 11L11 11C11.5523 11 12 10.5523 12 10C12 9.44772 11.5523 9 11 9L5 9Z" fill="#171725"/>
<path fill-rule="evenodd" clip-rule="evenodd" d="M3 0C1.34315 0 0 1.34315 0 3V13C0 14.6569 1.34315 16 3 16H12.9101C13.088 16 13.2627 16.0475 13.4162 16.1375L18.494 19.1165C19.1606 19.5076 20 19.0268 20 18.2539V3C20 1.34315 18.6569 0 17 0H3ZM17 2H3C2.44772 2 2 2.44772 2 3V13C2 13.5523 2.44772 14 3 14H12.9101C13.4438 14 13.9679 14.1424 14.4282 14.4124L18 16.5079V3C18 2.44771 17.5523 2 17 2Z" fill="#171725"/>
</svg>
